HIERARCHY
ROOT Hips
{
  OFFSET -69.4423 88.0299 51.6846
  CHANNELS 6 Xposition Yposition Zposition Zrotation Xrotation Yrotation
  JOINT Spine
  {
    OFFSET 12.0259 -0.162853 1.93176e-005
    CHANNELS 3 Zrotation Xrotation Yrotation
    JOINT Spine1
    {
      OFFSET 15.3169 -0.0121909 0
      CHANNELS 3 Zrotation Xrotation Yrotation
      JOINT Spine2
      {
        OFFSET 15.3176 -0.0121922 0
        CHANNELS 3 Zrotation Xrotation Yrotation
        JOINT Neck
        {
          OFFSET 19.9142 1.56236 0
          CHANNELS 3 Zrotation Xrotation Yrotation
          JOINT Head
          {
            OFFSET 6.92646 0 0
            CHANNELS 3 Zrotation Xrotation Yrotation
            End Site
            {
              OFFSET 20.7666 0 0
            }
          }
          JOINT LeftShoulder
          {
            OFFSET -4.94072 -1.14703 8.14416
            CHANNELS 3 Zrotation Xrotation Yrotation
            JOINT LeftArm
            {
              OFFSET 14.108 0 -2.74767e-005
              CHANNELS 3 Zrotation Xrotation Yrotation
              JOINT LeftForeArm
              {
                OFFSET 28.5802 -0.0783412 -0.0284884
                CHANNELS 3 Zrotation Xrotation Yrotation
                JOINT LeftHand
                {
                  OFFSET 27.092 0 0
                  CHANNELS 3 Zrotation Xrotation Yrotation
                  End Site
                  {
                    OFFSET 9.55928 -0.186424 0.145352
                  }
                }
              }
            }
          }
          JOINT RightShoulder
          {
            OFFSET -7.15748 -1.33027 -6.24935
            CHANNELS 3 Zrotation Xrotation Yrotation
            JOINT RightArm
            {
              OFFSET 14.108 0 1.82997e-005
              CHANNELS 3 Zrotation Xrotation Yrotation
              JOINT RightForeArm
              {
                OFFSET 28.5802 -0.0707221 2.30684e-005
                CHANNELS 3 Zrotation Xrotation Yrotation
                JOINT RightHand
                {
                  OFFSET 27.092 0 -1.30073e-005
                  CHANNELS 3 Zrotation Xrotation Yrotation
                  End Site
                  {
                    OFFSET 9.55929 -0.186417 -0.145354
                  }
                }
              }
            }
          }
        }
      }
    }
  }
  JOINT LeftUpLeg
  {
    OFFSET 0.00499725 -0.534999 8.837
    CHANNELS 3 Zrotation Xrotation Yrotation
    JOINT LeftLeg
    {
      OFFSET 39.9035 -0.00124594 0.000252775
      CHANNELS 3 Zrotation Xrotation Yrotation
      JOINT LeftFoot
      {
        OFFSET 39.6689 0 0
        CHANNELS 3 Zrotation Xrotation Yrotation
        JOINT LeftToe
        {
          OFFSET 10.1624 13.6296 0
          CHANNELS 3 Zrotation Xrotation Yrotation
          End Site
          {
            OFFSET 8.38147 0 0
          }
        }
      }
    }
  }
  JOINT RightUpLeg
  {
    OFFSET 0.00499725 -0.535 -8.837
    CHANNELS 3 Zrotation Xrotation Yrotation
    JOINT RightLeg
    {
      OFFSET 39.9036 -0.000268477 0.000106433
      CHANNELS 3 Zrotation Xrotation Yrotation
      JOINT RightFoot
      {
        OFFSET 39.6689 1.17892e-005 0
        CHANNELS 3 Zrotation Xrotation Yrotation
        JOINT RightToe
        {
          OFFSET 10.1624 13.6296 0
          CHANNELS 3 Zrotation Xrotation Yrotation
          End Site
          {
            OFFSET 8.38147 0 0
          }
        }
      }
    }
  }
}
MOTION
Frames:	20
Frame Time:	0.0333333
-45.8582 88.3015 60.8309 90.5913 -33.8698 7.01581 0.725107 -2.83945 0.8143 1.49341 -5.66758 1.66788 1.49341 -5.66756 1.66786 0.575049 -12.9836 -12.3956 67.2931 -13.9092 41.7136 175.567 -11.3832 -97.3956 -26.5554 -4.13759 81.7133 -29.4575 3.95464 -18.6337 8.01227 -85.7089 9.98412 175.294 -14.2276 71.4575 -1.83624 -6.44911 -83.3963 -25.649 -3.67138 15.9511 2.56372 82.6383 -2.48805 14.0667 1.57233 177.041 -10.0147 1.17437 -0.634061 -4.2559 7.52696 0.42588 90 -4.77083e-015 -9.54166e-015 -26.5259 -8.11063 179.758 -30.1325 -0.159455 0.118232 -8.72353 9.71168 2.97132 90 9.54166e-015 -2.54444e-014 
-43.769 88.1382 62.9809 90.7344 -32.0043 7.92614 0.877778 -3.01589 0.573308 1.78951 -6.022 1.19552 1.78951 -6.02202 1.19551 -0.00659145 -12.5996 -12.3321 66.4323 -12.8813 41.0661 176.253 -11.1316 -97.1842 -26.1708 -4.68666 81.2654 -29.6721 4.01757 -18.7488 7.96454 -85.7979 9.96045 175.99 -14.0267 71.6805 -1.73496 -5.20376 -83.6316 -26.0388 -3.77158 16.1449 2.66885 82.8513 -2.59477 12.5769 3.04475 176.353 -9.28776 1.16723 -0.637849 -2.869 9.28883 0.462114 90 1.74931e-014 9.54166e-015 -28.2183 -5.16843 178.092 -29.9036 -0.142908 0.129506 -9.32285 7.87321 2.58685 90 7.95139e-015 6.36111e-015 
-41.9344 87.9459 64.9463 90.3554 -29.8539 8.72296 0.98701 -2.99986 0.237091 1.99056 -5.99464 0.527177 1.99056 -5.99467 0.527165 0.111791 -12.4064 -12.2286 66.0161 -11.8479 41.1273 176.189 -10.939 -97.0851 -27.8405 -4.35302 80.8154 -29.4214 3.95854 -18.6159 42.5604 -88.7379 44.607 175.92 -13.8691 71.7929 -1.62666 -5.51692 -84.2852 -27.0109 -4.03375 16.6612 3.38902 84.3399 -3.31298 10.5777 3.65195 175.402 -10.3334 1.15704 -0.60493 -0.959621 11.0616 0.359399 90 -2.06736e-014 -2.22639e-014 -28.943 -1.34647 176.225 -30.6054 -0.166557 0.13266 -7.2983 5.17188 1.55215 90 6.36111e-015 -0 
-40.1308 87.8979 66.5126 89.8387 -28.4698 8.30429 1.24194 -2.84514 0.170616 2.49699 -5.6856 0.403927 2.49697 -5.68561 0.403917 -0.395278 -12.1479 -12.4945 66.2018 -10.9467 40.8361 176.757 -10.7483 -97.1317 -28.362 -5.19532 79.8088 -27.6427 3.55914 -17.7298 28.928 -88.3435 31.0684 176.406 -13.78 71.6464 -2.56147 -5.89381 -84.686 -27.9273 -4.28033 17.1349 4.47662 85.6745 -4.40104 8.1905 2.60721 175.447 -12.6226 1.13433 -0.615139 -0.278855 10.4248 0.303999 90 6.36111e-015 -0 -29.2902 0.799259 175.702 -33.1348 -0.212363 0.107573 -4.00531 1.9071 0.440442 90 -9.54166e-015 -0 
-38.3867 87.9462 67.7046 89.3168 -27.11 7.34201 1.38113 -2.72501 0.139562 2.77363 -5.44532 0.345665 2.77363 -5.44532 0.345653 -0.0882559 -11.6907 -12.0413 66.2368 -10.3284 39.9079 176.688 -10.2306 -96.5996 -27.2366 -5.54664 79.1844 -25.575 3.13283 -16.6592 19.9145 -87.1097 21.9611 176.282 -13.309 72.0792 -4.61967 -7.07935 -85.447 -28.6307 -4.46886 17.5136 5.85991 86.6682 -5.79073 5.78302 2.18439 175.85 -15.1562 1.109 -0.621242 1.42391 8.96031 0.128213 90 -4.77083e-015 3.18055e-015 -29.5394 1.32345 175.898 -38.1082 -0.236008 0.0551746 -1.71205 0.51115 0.00979663 90 1.90833e-014 9.54166e-015 
-36.6928 88.1572 68.6363 88.7009 -25.6024 6.7456 1.58057 -2.60525 0.338144 3.18146 -5.19964 0.749487 3.18145 -5.19963 0.749473 -0.345707 -11.382 -12.4916 65.9629 -10.1055 38.5374 176.993 -9.92219 -96.8717 -24.8303 -6.71025 80.2168 -23.8272 2.80525 -15.7803 12.791 -85.3221 14.8004 176.516 -12.9921 71.6394 -5.59519 -8.01378 -84.7539 -29.3596 -4.68278 17.8971 6.02364 86.7176 -5.95716 3.96076 1.02144 176.169 -16.536 1.09441 -0.637108 1.16458 8.64907 0.175889 90 -1.27222e-014 -1.27222e-014 -29.755 1.60678 175.909 -45.651 -0.241151 0.00459285 -0.35482 1.1181 0.00376231 90 4.77083e-015 9.54166e-015 
-35.0635 88.5896 69.3867 88.1318 -23.6289 6.49433 1.68954 -2.42313 0.324619 3.39738 -4.83507 0.721791 3.39737 -4.83511 0.721778 -0.661052 -11.1945 -12.5521 66.7071 -9.67831 38.0586 177.392 -9.78733 -96.7195 -21.3942 -7.79869 81.0196 -21.6153 2.41525 -14.6281 10.3331 -83.5686 12.3161 176.84 -12.8589 71.6014 -5.50809 -9.01339 -85.061 -29.6076 -4.75831 18.037 6.46485 86.9225 -6.40975 2.95722 0.982328 176.502 -16.2075 1.08562 -0.64658 -0.13865 10.489 0.396518 90 1.27222e-014 2.22639e-014 -29.699 2.2973 175.455 -54.3363 -0.240706 -0.0491019 0.395509 0.415685 -0.138156 90 -9.54166e-015 -6.36111e-015 
-33.5047 88.7448 70.0001 87.3434 -21.0043 6.06954 1.77044 -2.37061 0.214181 3.55434 -4.73296 0.502431 3.55432 -4.73295 0.502423 -0.180789 -11.2006 -11.5534 66.5299 -9.69411 37.711 177.076 -9.79166 -95.7627 -20.2356 -6.59952 80.8935 -20.8701 2.2777 -14.173 12.9543 -84.9395 14.9749 176.562 -12.7478 72.5104 -4.7409 -10.0054 -86.1133 -29.3743 -4.68299 17.9172 5.75005 86.5457 -5.70201 1.36495 0.392 177.058 -17.3693 1.078 -0.630217 -1.23717 11.8123 0.646099 90 -1.43125e-014 -1.59028e-014 -28.0391 1.66162 175.034 -61.381 -0.242201 -0.111256 0.55102 -0.048565 -0.204133 90 -4.77083e-015 -6.36111e-015 
-31.9124 89.1401 70.5196 86.9483 -18.035 5.67868 1.68998 -2.50172 0.348722 3.40008 -4.99129 0.772456 3.40007 -4.99129 0.772435 0.311809 -11.1126 -12.2426 66.169 -9.33108 37.3637 176.463 -9.65568 -96.5062 -18.5615 -5.11404 81.5927 -20.2935 2.17609 -13.8121 11.9534 -84.745 13.9641 175.938 -12.4387 71.7198 -4.75681 -11.7399 -86.1552 -28.983 -4.57477 17.7381 7.94502 87.5427 -7.89724 0.00710345 -0.669439 177.628 -17.1547 1.07341 -0.66335 -3.17749 13.289 1.09995 90 -1.59028e-015 3.18055e-015 -25.3577 1.34824 174.864 -66.4488 -0.253587 -0.186661 -0.550159 -0.502691 -0.211967 90 1.59028e-015 -0 
-30.4706 89.6559 70.8533 86.2392 -15.1967 5.37593 1.72394 -2.3971 0.381181 3.46844 -4.78095 0.835744 3.46842 -4.78095 0.835729 0.750107 -11.5509 -12.6088 65.8158 -9.26488 38.1304 175.832 -10.0626 -96.9892 -18.1073 -3.44418 81.6101 -20.2308 2.15762 -13.7051 12.9955 -84.8739 15.0659 175.315 -12.6846 71.2218 -3.81415 -12.9863 -86.6956 -28.3602 -4.39341 17.4219 7.50988 87.5297 -7.46105 0.0695229 -1.52622 178.104 -14.977 1.07316 -0.727488 -6.05903 15.5132 1.92169 90 3.18055e-015 3.18055e-015 -21.2114 1.0667 174.705 -68.9499 -0.27344 -0.262873 -2.83829 -1.5582 -0.294016 90 2.38542e-014 3.02153e-014 
-28.7985 89.7664 71.3639 86.1263 -12.6402 5.97585 1.65643 -2.17227 0.242586 3.32565 -4.33607 0.548695 3.32564 -4.33612 0.548684 0.537668 -11.9732 -12.5566 66.5201 -9.545 38.6321 175.927 -10.5933 -96.9089 -17.6453 -2.19711 81.3492 -19.8203 2.07737 -13.41 11.4652 -83.6346 13.5608 175.42 -13.0899 71.2718 -3.29024 -13.9565 -87.4016 -27.1601 -4.0596 16.8093 6.39516 87.0874 -6.34123 -0.735891 -2.00048 177.668 -13.2582 1.07412 -0.781453 -8.75802 16.996 2.75209 90 -7.95139e-015 -6.36111e-015 -16.7197 1.58469 174.036 -68.7461 -0.30376 -0.32427 -4.76944 -4.15726 -0.762845 90 4.77083e-015 2.38542e-015 
-26.9057 89.7839 71.4556 86.534 -10.5393 5.08784 1.52646 -1.88869 0.451991 3.07029 -3.76413 0.955118 3.07029 -3.76411 0.95511 0.654363 -12.375 -12.6943 66.3901 -9.9646 38.8103 175.657 -11.0296 -97.1298 -16.3902 -0.789424 81.0691 -20.0203 2.10962 -13.4621 9.69426 -83.513 11.7167 175.187 -13.384 71.0607 -3.66174 -14.2709 -87.6798 -24.9952 -3.49278 15.6841 5.33201 86.1959 -5.25755 -3.31163 -2.19595 178.944 -14.199 1.07369 -0.801568 -10.2776 18.1594 3.46456 90 1.27222e-014 6.36111e-015 -12.1461 2.27008 175.86 -65.6762 -0.359233 -0.436468 -6.60183 -7.0477 -1.46724 90 -7.15625e-015 -9.93923e-015 
-25.0423 89.6558 71.8442 86.3043 -8.98405 5.1262 1.47398 -1.563 0.478028 2.9626 -3.11262 0.996829 2.96259 -3.11264 0.996819 0.832038 -12.6656 -12.8994 66.6509 -10.393 38.7569 175.336 -11.3169 -97.3998 -15.0107 0.427344 81.074 -20.1161 2.12838 -13.458 12.7569 -84.7684 14.7884 174.908 -13.5587 70.775 -2.4927 -14.0438 -87.3657 -22.7349 -2.9345 14.46 2.7424 83.4611 -2.65992 -4.90374 -1.81897 178.927 -14.5913 1.06887 -0.792858 -11.6866 19.3536 4.12731 90 -7.95139e-015 -0 -6.76004 3.76088 176.504 -60.6483 -0.419855 -0.501764 -9.39366 -10.3404 -2.58416 90 8.34896e-015 7.95139e-015 
-22.7473 89.4028 71.8148 87.139 -7.6883 4.12329 1.35906 -1.24287 0.72237 2.73467 -2.46758 1.47469 2.73465 -2.46763 1.47469 0.417075 -12.7215 -13.199 66.9786 -10.1979 38.755 175.644 -11.5158 -97.6531 -12.7329 1.15372 80.6274 -20.5452 2.20548 -13.6373 8.81423 -83.9575 10.8231 175.272 -13.6592 70.5422 -1.23527 -12.8291 -87.0035 -20.8487 -2.51221 13.4178 2.19788 81.1741 -2.09555 -8.32301 -1.88251 -179.712 -16.2807 1.04281 -0.79291 -12.979 20.4175 4.8836 90 1.43125e-014 1.27222e-014 -2.58415 5.3768 178.924 -53.5268 -0.486652 -0.569682 -11.9094 -11.51 -3.31705 90 -3.12092e-014 -2.54444e-014 
-20.146 89.0269 71.901 87.7532 -6.72122 3.46205 1.27721 -0.895935 0.88933 2.56865 -1.77122 1.79889 2.56864 -1.77123 1.79888 0.461764 -13.1332 -13.533 66.9404 -10.5982 39.0992 175.39 -11.9393 -98.0731 -10.9871 1.96246 80.1758 -20.9607 2.27885 -13.8122 7.55455 -83.8953 9.55845 175.067 -14.0379 70.1613 0.88282 -11.3592 -86.5729 -19.7145 -2.27365 12.7728 1.79253 79.1023 -1.68943 -11.9625 -3.26825 -178.979 -18.0389 1.01668 -0.810794 -13.5483 20.3864 5.06993 90 -6.36111e-015 -3.18055e-015 1.46413 6.4002 -179.672 -45.477 -0.549096 -0.568539 -8.04792 -10.4688 -2.49113 90 3.67752e-015 1.59028e-015 
-17.0247 88.5661 72.1106 88.7766 -5.40158 3.04661 1.17605 -0.517582 0.951219 2.36069 -1.015 1.91311 2.36068 -1.015 1.9131 0.559823 -13.8518 -13.1467 67.0059 -11.4628 39.8608 175.14 -12.6929 -97.8259 -10.9566 3.07292 79.7668 -21.5717 2.38771 -14.0905 14.0792 -85.8819 16.0803 174.903 -14.7732 70.5005 1.85983 -9.66733 -86.545 -19.369 -2.20634 12.5698 1.88479 78.314 -1.77401 -15.3529 -4.94265 -178.527 -17.8876 0.985116 -0.870296 -16.1514 19.9161 5.78155 90 1.27222e-014 -9.54166e-015 3.86179 5.34065 -178.701 -38.9241 -0.582977 -0.515477 -0.75548 -7.07354 -1.14566 90 0 3.18055e-015 
-13.7181 88.4916 72.0478 89.5257 -4.29591 2.11578 1.31364 -0.362438 1.24879 2.63495 -0.695613 2.50579 2.63493 -0.695588 2.50577 0.146846 -14.4809 -13.395 66.6026 -12.2155 40.4317 175.299 -13.4188 -98.0613 -9.64968 3.07446 80.2024 -21.9582 2.47574 -14.2929 18.3108 -86.4482 20.3594 175.146 -15.5225 70.2839 0.978815 -7.00691 -85.6128 -19.6864 -2.27081 12.7287 2.01636 78.8277 -1.91372 -17.4406 -5.89798 -177.334 -15.6408 0.927535 -0.991323 -20.3634 19.3654 6.97387 90 0 -6.36111e-015 4.22633 3.94145 -176.872 -34.3613 -0.628427 -0.444733 3.00293 -2.99834 -0.553568 90 -1.27222e-014 -1.43125e-014 
-10.3801 88.4351 71.9817 90.2977 -3.97381 1.14892 1.39724 -0.160001 1.46392 2.79811 -0.283751 2.93147 2.79811 -0.283712 2.93146 0.792255 -15.0809 -13.3116 66.1911 -12.8976 41.0958 174.504 -13.8966 -98.1998 -8.43262 3.36734 80.2249 -21.6708 2.42917 -14.1215 19.5547 -86.5585 21.6231 174.4 -16.0177 70.1717 -1.74294 -5.21628 -84.8763 -20.9971 -2.54502 13.4471 2.40475 80.7313 -2.32839 -18.5777 -6.58875 -175.847 -12.3494 0.797019 -1.154 -23.0586 16.1645 6.57584 90 0 -6.36111e-015 2.91007 3.91308 -175.315 -31.912 -0.670216 -0.402258 4.87202 -0.960739 -0.432753 90 2.38542e-015 4.77083e-015 
-7.44657 88.4265 72.0148 90.5125 -3.64369 1.23626 1.55109 0.0946417 1.53913 3.0991 0.231391 3.0753 3.0991 0.231389 3.07529 1.23374 -15.9438 -13.3252 66.6417 -13.944 42.1359 173.805 -14.6572 -98.4239 -8.29807 4.14563 81.2827 -21.6872 2.43866 -14.141 19.3565 -86.5072 21.4313 173.783 -16.7318 69.9799 -4.72012 -3.73264 -83.242 -22.4255 -2.86209 14.2191 3.07572 82.8623 -3.00854 -18.8817 -6.21968 -175.414 -10.9632 0.747272 -1.20319 -18.8663 15.5228 5.33088 90 -1.27222e-014 -1.59028e-014 1.29381 4.25337 -175.3 -31.2552 -0.663307 -0.368034 6.33473 -0.940044 -0.507419 90 7.95139e-016 -3.18055e-015 
-4.76216 88.6025 72.2955 90.2605 -2.56227 1.75679 1.69414 -0.0682176 1.53189 3.38953 -0.0906079 3.06531 3.38952 -0.0905756 3.06529 1.83766 -16.5104 -13.161 67.9183 -14.4137 43.2205 173.046 -15.1122 -98.4952 -8.47876 5.74381 82.7322 -21.6344 2.42727 -14.1187 18.3211 -86.6142 20.4509 173.12 -17.0728 69.9723 -8.44561 -3.05312 -81.5109 -24.5821 -3.3774 15.3804 3.87776 84.4556 -3.81964 -18.328 -5.7909 -175.975 -11.9431 0.79879 -1.14631 -11.0939 16.571 3.7902 90 6.36111e-015 6.36111e-015 -0.239657 3.03511 -176.071 -31.6505 -0.614979 -0.331856 6.92951 -1.47174 -0.569345 90 -2.78299e-014 -2.78299e-014 
